<svg xmlns="http://www.w3.org/2000/svg" xmlns:xlink="http://www.w3.org/1999/xlink" xmlns:svgjs="http://svgjs.com/svgjs" version="1.1" viewBox="19.49 127.76 390.89 45.23"><g id="svg-container" transform="matrix(1.46,0,0,1.46,-246.0159632873535,131.97969168186188)"><g id="headline" transform="matrix(1,0,0,1,0,0)"><text data-font-id="1333" font-family="px_silverfake" id="headline_0" transform="matrix(1,0,0,1,181.85318359375,0)" svgjs:data="{&quot;leading&quot;:&quot;1.3&quot;}"><tspan dy="20.8" x="0" fill="#000000" svgjs:data="{&quot;leading&quot;:&quot;1.3&quot;,&quot;newLined&quot;:true}">MEMORYGAME</tspan></text></g><g id="tagline" transform="matrix(0.6027933782688355,0,0,0.6027933782688355,164.4585607008275,21.035323425656717)"><text data-font-id="1199" font-family="hkgrotesk__light_italic" id="tagline_0" transform="matrix(0.5127631189623183,0,0,0.5127631189623183,134.19593142195538,-2.375279795058699)" svgjs:data="{&quot;leading&quot;:&quot;1.3&quot;}"><tspan dy="20.8" x="0" fill="#2d51a3" svgjs:data="{&quot;leading&quot;:&quot;1.3&quot;,&quot;newLined&quot;:true}">Pon a prueba tu mente!</tspan></text></g><g id="symbols" transform="matrix(2.321428447278877,0,0,2.321428447278877,263.99534429152004,-3.6261035165838345)"><svg xmlns="http://www.w3.org/2000/svg" viewBox="0 0 512 512" data-external-asset-id="1247672" width="6.339059274605538" height="6.339059274605538" id="symbols_0" data-no-color="true"><path fill="#e65a5b" d="M355.609 25.551L199.218 275.634l156.391 69.186 54.052-151.346z"/><path fill="#ff6465" d="M355.609 25.553V344.82L512 275.634z"/><path fill="#a6e7ff" d="M160.463 102.733L0 174.644l43.011 89.641 68.327 26.405L234.6 227.44l37.201-52.796z"/><path fill="#6ab2cc" d="M111.338 246.556L0 174.644v171.755l111.338 71.911 48.139-101.032z"/><path fill="#7dd2f0" d="M271.801 346.399V174.644l-160.463 71.912V418.31z"/><circle cx="309.816" cy="355.558" r="130.891" fill="#ffd782"/><path d="M202.552 379.187c0-72.292 58.604-130.896 130.896-130.896 30.123 0 57.863 10.181 79.982 27.281-23.939-30.967-61.446-50.914-103.615-50.914-72.292 0-130.896 58.604-130.896 130.896 0 42.169 19.946 79.676 50.914 103.615-17.1-22.12-27.281-49.86-27.281-79.982z" opacity=".1"/></svg></g></g><defs><style>@font-face {font-family: px_silverfake;src: url(https://pismo.tailorbrands.com/v2/px_fonts/px_silverfake)}</style><style>@font-face {font-family: hkgrotesk__light_italic;src: url(https://pismo.tailorbrands.com/v2/px_fonts/hkgrotesk__light_italic)}</style></defs></svg>